<svg width="163" height="40" viewBox="0 0 163 40" fill="none" xmlns="http://www.w3.org/2000/svg">
<path d="M34.0666 39.9521C40.9106 39.9521 46.4588 35.1219 46.4588 29.1635C46.4588 23.205 40.9106 18.3748 34.0666 18.3748C27.2225 18.3748 21.6743 23.205 21.6743 29.1635C21.6743 35.1219 27.2225 39.9521 34.0666 39.9521Z" fill="#97CF26"/>
<path d="M10.7722 34.1854C13.958 34.1854 16.5406 31.937 16.5406 29.1635C16.5406 26.39 13.958 24.1416 10.7722 24.1416C7.58648 24.1416 5.00391 26.39 5.00391 29.1635C5.00391 31.937 7.58648 34.1854 10.7722 34.1854Z" fill="#A169F7"/>
<path d="M34.0667 15.8278C38.4719 15.8278 42.043 12.7188 42.043 8.88362C42.043 5.04846 38.4719 1.93945 34.0667 1.93945C29.6615 1.93945 26.0903 5.04846 26.0903 8.88362C26.0903 12.7188 29.6615 15.8278 34.0667 15.8278Z" fill="#FF6163"/>
<path d="M10.7722 17.7502C16.3968 17.7502 20.9565 13.7806 20.9565 8.88377C20.9565 3.98697 16.3968 0.017334 10.7722 0.017334C5.14755 0.017334 0.587891 3.98697 0.587891 8.88377C0.587891 13.7806 5.14755 17.7502 10.7722 17.7502Z" fill="#00AAFF"/>
<path d="M79.9017 34.1269H86.6919L74.1166 5.88501H69.1914L56.6138 34.1278H63.4046L65.8062 28.7369H77.5L79.9017 34.1278L67.6975 24.4867L71.6537 15.6059L75.6076 24.4867H67.6975L79.9017 34.1269ZM103.525 14.8456L97.2758 28.8753L91.0298 14.8456H84.6497L93.2392 34.1269H101.314L109.902 14.8456H103.524H103.525ZM112.572 14.8456H118.952V34.1269H112.572V14.8456Z" fill="black"/>
<path d="M112.67 12.6561C114.819 12.6561 116.561 11.1392 116.561 9.26811C116.561 7.39698 114.819 5.88013 112.67 5.88013C110.521 5.88013 108.778 7.39698 108.778 9.26811C108.778 11.1392 110.521 12.6561 112.67 12.6561Z" fill="black"/>
<path d="M137.013 19.0949V14.8458H129.773V9.52686H123.732V14.8458H118.952V19.0949H123.732V27.3904C123.732 31.6694 126.19 34.5254 132.465 34.5254C134.888 34.5254 137.013 33.7507 137.013 33.7507L136.279 29.5876C136.279 29.5876 135.09 29.8971 133.627 29.8971C131.834 29.8971 129.773 29.2243 129.773 27.0665V19.0944H137.013V19.0949ZM150.874 29.7197C147.504 29.7197 144.773 27.3938 144.773 24.5248C144.773 21.6582 147.504 19.3318 150.873 19.3318C154.244 19.3318 156.974 21.6587 156.974 24.5253C156.974 27.3943 154.244 29.7202 150.874 29.7202V29.7197ZM150.874 14.3537C144.323 14.3537 139.01 18.8782 139.01 24.4551C139.01 30.0345 144.323 34.5566 150.873 34.5566C157.421 34.5566 162.734 30.0345 162.734 24.4551C162.734 18.8782 157.421 14.3537 150.873 14.3537" fill="black"/>
</svg>
